<svg height="512pt" viewBox="-31 0 512 512" width="512pt" xmlns="http://www.w3.org/2000/svg"><path d="m300 45v30c0 8.398438-6.597656 15-15 15h-120c-8.402344 0-15-6.601562-15-15v-30c0-24.902344 20.097656-45 45-45h60c24.902344 0 45 20.097656 45 45zm0 0" fill="#deecf1"/><path d="m300 45v30c0 8.398438-6.597656 15-15 15h-60v-90h30c24.902344 0 45 20.097656 45 45zm0 0" fill="#a8d3d8"/><path d="m330 127.5v-23.402344c0-24.296875-19.800781-44.097656-45-44.097656h-132.898438c-16.199218 0-31.199218 8.398438-39 22.199219-76.503906 131.402343-73.203124 294.800781 9.296876 422.898437 2.699218 4.203125 7.5 6.902344 12.601562 6.902344h210c3.898438 0 7.800781-1.5 10.496094-4.5 2.703125-2.402344 64.503906-67.699219 64.503906-192.5 0-108.300781-68.101562-170.398438-90-187.5zm0 202.5c-16.5 0-30-13.5-30-30 0-50.699219-33.898438-78-37.800781-81-13.5-10.199219-15.898438-29.101562-6-42 9.601562-13.199219 28.5-16.199219 42-6 6.304687 4.800781 61.800781 48.898438 61.800781 129 0 16.5-13.5 30-30 30zm0 0" fill="#ff9ac9"/><path d="m330 127.5v-23.402344c0-24.296875-19.800781-44.097656-45-44.097656h-60v452h120c3.898438 0 7.800781-1.5 10.5-4.5 2.699219-2.402344 64.5-67.699219 64.5-192.5 0-108.300781-68.101562-170.398438-90-187.5zm0 202.5c-16.5 0-30-13.5-30-30 0-50.699219-33.898438-78-37.800781-81-13.5-10.199219-15.898438-29.101562-6-42 9.601562-13.199219 28.5-16.199219 42-6 6.304687 4.800781 61.800781 48.898438 61.800781 129 0 16.5-13.5 30-30 30zm0 0" fill="#ff5ca8"/><path d="m449.972656 135c0 8.285156-6.71875 15-15 15-8.285156 0-15-6.714844-15-15s6.714844-15 15-15c8.28125 0 15 6.714844 15 15zm0 0" fill="#c6e2e7"/><path d="m210 330c-24.902344 0-45-20.097656-45-45 0-8.402344-6.597656-15-15-15s-15 6.597656-15 15c0 24.902344-20.097656 45-45 45-8.402344 0-15 6.597656-15 15s6.597656 15 15 15c24.902344 0 45 20.097656 45 45 0 8.402344 6.597656 15 15 15s15-6.597656 15-15c0-24.902344 20.097656-45 45-45 8.402344 0 15-6.597656 15-15s-6.597656-15-15-15zm0 0" fill="#ffd400"/><path d="m225 345c0 8.402344-6.597656 15-15 15-24.902344 0-45 20.097656-45 45 0 8.402344-6.597656 15-15 15v-150c8.402344 0 15 6.597656 15 15 0 24.902344 20.097656 45 45 45 8.402344 0 15 6.597656 15 15zm0 0" fill="#fdbf00"/><path d="m45 0c-24.902344 0-45 20.097656-45 45s20.097656 45 45 45 45-20.097656 45-45-20.097656-45-45-45zm0 0" fill="#deecf1"/><path d="m90 45c0 24.902344-20.097656 45-45 45v-90c24.902344 0 45 20.097656 45 45zm0 0" fill="#c6e2e7"/><path d="m405 0c-24.902344 0-45 20.097656-45 45s20.097656 45 45 45 45-20.097656 45-45-20.097656-45-45-45zm0 0" fill="#deecf1"/><path d="m450 45c0 24.902344-20.097656 45-45 45v-90c24.902344 0 45 20.097656 45 45zm0 0" fill="#c6e2e7"/></svg>